{
  "accessors": [
    {
      "bufferView": 2,
      "componentType": 5126,
      "count": 40,
      "max": [
        0.22710099816322327,
        3.080022096633911,
        0.31952598690986633
      ],
      "min": [
        -0.22710099816322327,
        2.7975759506225586,
        0.20169299840927124
      ],
      "type": "VEC3"
    },
    {
      "bufferView": 2,
      "byteOffset": 480,
      "componentType": 5126,
      "count": 40,
      "max": [
        0.8510091304779053,
        0.6873131990432739,
        0.6898374557495117
      ],
      "min": [
        -0.8510091304779053,
        0.3159085810184479,
        0.4153880178928375
      ],
      "type": "VEC3"
    },
    {
      "bufferView": 1,
      "componentType": 5126,
      "count": 40,
      "max": [
        18.809900283813477,
        9.135899543762207
      ],
      "min": [
        0.0,
        4.56790018081665
      ],
      "type": "VEC2"
    },
    {
      "bufferView": 0,
      "componentType": 5125,
      "count": 84,
      "type": "SCALAR"
    },
    {
      "bufferView": 2,
      "byteOffset": 960,
      "componentType": 5126,
      "count": 2858,
      "max": [
        0.6845899820327759,
        2.5741090774536133,
        -0.15607300400733948
      ],
      "min": [
        -0.6846299767494202,
        -0.13603900372982025,
        -0.5149629712104797
      ],
      "type": "VEC3"
    },
    {
      "bufferView": 2,
      "byteOffset": 35256,
      "componentType": 5126,
      "count": 2858,
      "max": [
        1.0,
        1.0,
        1.0
      ],
      "min": [
        -1.0,
        -1.0,
        -1.0
      ],
      "type": "VEC3"
    },
    {
      "bufferView": 1,
      "byteOffset": 320,
      "componentType": 5126,
      "count": 2858,
      "max": [
        1.0499999523162842,
        1.0
      ],
      "min": [
        -0.05000000074505806,
        0.0
      ],
      "type": "VEC2"
    },
    {
      "bufferView": 0,
      "byteOffset": 336,
      "componentType": 5125,
      "count": 8022,
      "type": "SCALAR"
    },
    {
      "bufferView": 2,
      "byteOffset": 69552,
      "componentType": 5126,
      "count": 16809,
      "max": [
        0.6893320083618164,
        2.6101651191711426,
        -0.07571300119161606
      ],
      "min": [
        -0.6893730163574219,
        -0.1361760050058365,
        -0.5343359708786011
      ],
      "type": "VEC3"
    },
    {
      "bufferView": 2,
      "byteOffset": 271260,
      "componentType": 5126,
      "count": 16809,
      "max": [
        1.0,
        1.0,
        1.0
      ],
      "min": [
        -1.0,
        -1.0,
        -1.0
      ],
      "type": "VEC3"
    },
    {
      "bufferView": 1,
      "byteOffset": 23184,
      "componentType": 5126,
      "count": 16809,
      "max": [
        1.0499999523162842,
        1.0
      ],
      "min": [
        -0.125,
        0.0
      ],
      "type": "VEC2"
    },
    {
      "bufferView": 0,
      "byteOffset": 32424,
      "componentType": 5125,
      "count": 49692,
      "type": "SCALAR"
    },
    {
      "bufferView": 2,
      "byteOffset": 472968,
      "componentType": 5126,
      "count": 2890,
      "max": [
        1.2408519983291626,
        0.83992600440979,
        -0.12235499918460846
      ],
      "min": [
        -1.2408519983291626,
        0.47168999910354614,
        -0.41935300827026367
      ],
      "type": "VEC3"
    },
    {
      "bufferView": 2,
      "byteOffset": 507648,
      "componentType": 5126,
      "count": 2890,
      "max": [
        1.0,
        1.0,
        1.0
      ],
      "min": [
        -1.0,
        -0.9825795888900757,
        -1.0
      ],
      "type": "VEC3"
    },
    {
      "bufferView": 1,
      "byteOffset": 157656,
      "componentType": 5126,
      "count": 2890,
      "max": [
        0.8450999855995178,
        0.5041999816894531
      ],
      "min": [
        0.06340000033378601,
        0.17010000348091125
      ],
      "type": "VEC2"
    },
    {
      "bufferView": 0,
      "byteOffset": 231192,
      "componentType": 5125,
      "count": 7296,
      "type": "SCALAR"
    },
    {
      "bufferView": 2,
      "byteOffset": 542328,
      "componentType": 5126,
      "count": 3642,
      "max": [
        0.6897220015525818,
        2.600615978240967,
        -0.368274986743927
      ],
      "min": [
        -0.6897619962692261,
        -0.09268099814653397,
        -0.5628669857978821
      ],
      "type": "VEC3"
    },
    {
      "bufferView": 2,
      "byteOffset": 586032,
      "componentType": 5126,
      "count": 3642,
      "max": [
        0.9964656829833984,
        1.0,
        1.0
      ],
      "min": [
        -0.9964656829833984,
        -1.0,
        -1.0
      ],
      "type": "VEC3"
    },
    {
      "bufferView": 1,
      "byteOffset": 180776,
      "componentType": 5126,
      "count": 3642,
      "max": [
        1.0,
        0.9212999939918518
      ],
      "min": [
        0.0,
        0.0786999985575676
      ],
      "type": "VEC2"
    },
    {
      "bufferView": 0,
      "byteOffset": 260376,
      "componentType": 5125,
      "count": 20736,
      "type": "SCALAR"
    },
    {
      "bufferView": 2,
      "byteOffset": 629736,
      "componentType": 5126,
      "count": 5253,
      "max": [
        2.3718020915985107,
        3.0823590755462646,
        0.5720019936561584
      ],
      "min": [
        -2.3718020915985107,
        -3.2661850452423096,
        -0.5155109763145447
      ],
      "type": "VEC3"
    },
    {
      "bufferView": 2,
      "byteOffset": 692772,
      "componentType": 5126,
      "count": 5253,
      "max": [
        1.0,
        1.0,
        1.0
      ],
      "min": [
        -1.0,
        -1.0,
        -1.0
      ],
      "type": "VEC3"
    },
    {
      "bufferView": 3,
      "componentType": 5126,
      "count": 5253,
      "max": [
        1.0,
        1.0,
        1.0,
        1.0
      ],
      "min": [
        -1.0,
        -1.0,
        -1.0,
        -1.0
      ],
      "type": "VEC4"
    },
    {
      "bufferView": 1,
      "byteOffset": 209912,
      "componentType": 5126,
      "count": 5253,
      "max": [
        87.28350067138672,
        1.0
      ],
      "min": [
        -26.184999465942383,
        0.0
      ],
      "type": "VEC2"
    },
    {
      "bufferView": 0,
      "byteOffset": 343320,
      "componentType": 5125,
      "count": 6129,
      "type": "SCALAR"
    },
    {
      "bufferView": 2,
      "byteOffset": 755808,
      "componentType": 5126,
      "count": 32075,
      "max": [
        3.299952983856201,
        3.412911891937256,
        1.9097729921340942
      ],
      "min": [
        -3.299952983856201,
        -3.412911891937256,
        -0.5177299976348877
      ],
      "type": "VEC3"
    },
    {
      "bufferView": 2,
      "byteOffset": 1140708,
      "componentType": 5126,
      "count": 32075,
      "max": [
        1.0,
        1.0,
        1.0
      ],
      "min": [
        -1.0,
        -1.0,
        -1.0
      ],
      "type": "VEC3"
    },
    {
      "bufferView": 3,
      "byteOffset": 84048,
      "componentType": 5126,
      "count": 32075,
      "max": [
        1.0,
        1.0,
        1.0,
        1.0
      ],
      "min": [
        -1.0,
        -1.0,
        -1.0,
        -1.0
      ],
      "type": "VEC4"
    },
    {
      "bufferView": 1,
      "byteOffset": 251936,
      "componentType": 5126,
      "count": 32075,
      "max": [
        152.74609375,
        17.944599151611328
      ],
      "min": [
        -26.184999465942383,
        -0.0027779999654740095
      ],
      "type": "VEC2"
    },
    {
      "bufferView": 0,
      "byteOffset": 367836,
      "componentType": 5125,
      "count": 157773,
      "type": "SCALAR"
    },
    {
      "bufferView": 2,
      "byteOffset": 1525608,
      "componentType": 5126,
      "count": 3667,
      "max": [
        0.4192030131816864,
        3.3408000469207764,
        1.9097729921340942
      ],
      "min": [
        0.0,
        -3.2401909828186035,
        -0.30301499366760254
      ],
      "type": "VEC3"
    },
    {
      "bufferView": 2,
      "byteOffset": 1569612,
      "componentType": 5126,
      "count": 3667,
      "max": [
        0.9999912977218628,
        0.7333886027336121,
        0.999226450920105
      ],
      "min": [
        -0.013500453904271126,
        -0.9879335761070251,
        -0.9971976280212402
      ],
      "type": "VEC3"
    },
    {
      "bufferView": 3,
      "byteOffset": 597248,
      "componentType": 5126,
      "count": 3667,
      "max": [
        0.6967180967330933,
        0.6566242575645447,
        0.7901350855827332,
        1.0
      ],
      "min": [
        -0.9700844883918762,
        -1.0,
        -0.4164856970310211,
        -1.0
      ],
      "type": "VEC4"
    },
    {
      "bufferView": 1,
      "byteOffset": 508536,
      "componentType": 5126,
      "count": 3667,
      "max": [
        0.9968000054359436,
        0.9740999937057495
      ],
      "min": [
        0.004600000102072954,
        0.00839999970048666
      ],
      "type": "VEC2"
    },
    {
      "bufferView": 0,
      "byteOffset": 998928,
      "componentType": 5125,
      "count": 20526,
      "type": "SCALAR"
    },
    {
      "bufferView": 2,
      "byteOffset": 1613616,
      "componentType": 5126,
      "count": 1247,
      "max": [
        0.23273900151252747,
        3.0925369262695313,
        0.32649800181388855
      ],
      "min": [
        -0.23273900151252747,
        2.791002035140991,
        0.19366300106048584
      ],
      "type": "VEC3"
    },
    {
      "bufferView": 2,
      "byteOffset": 1628580,
      "componentType": 5126,
      "count": 1247,
      "max": [
        0.9994164705276489,
        0.9952342510223389,
        0.952768862247467
      ],
      "min": [
        -0.9994164705276489,
        -0.8770198225975037,
        -0.9102351665496826
      ],
      "type": "VEC3"
    },
    {
      "bufferView": 1,
      "byteOffset": 537872,
      "componentType": 5126,
      "count": 1247,
      "max": [
        24.61090087890625,
        18.271699905395508
      ],
      "min": [
        0.0,
        0.0
      ],
      "type": "VEC2"
    },
    {
      "bufferView": 0,
      "byteOffset": 1081032,
      "componentType": 5125,
      "count": 1320,
      "type": "SCALAR"
    }
  ],
  "asset": {
    "extras": {
      "author": "Yusuf (https://sketchfab.com/yusufes)",
      "license": "CC-BY-4.0 (http://creativecommons.org/licenses/by/4.0/)",
      "source": "https://sketchfab.com/3d-models/turkish-airlines-7665251b6fb24b29b30aa087a0cf3c64",
      "title": "Turkish Airlines"
    },
    "generator": "Sketchfab-12.68.0",
    "version": "2.0"
  },
  "bufferViews": [
    {
      "buffer": 0,
      "byteLength": 1086312,
      "name": "floatBufferViews",
      "target": 34963
    },
    {
      "buffer": 0,
      "byteLength": 547848,
      "byteOffset": 1086312,
      "byteStride": 8,
      "name": "floatBufferViews",
      "target": 34962
    },
    {
      "buffer": 0,
      "byteLength": 1643544,
      "byteOffset": 1634160,
      "byteStride": 12,
      "name": "floatBufferViews",
      "target": 34962
    },
    {
      "buffer": 0,
      "byteLength": 655920,
      "byteOffset": 3277704,
      "byteStride": 16,
      "name": "floatBufferViews",
      "target": 34962
    }
  ],
  "buffers": [
    {
      "byteLength": 3933624,
      "uri": "scene.bin"
    }
  ],
  "images": [
    {
      "uri": "textures/a_side.001_baseColor.jpeg"
    },
    {
      "uri": "textures/a_side.001_normal.png"
    },
    {
      "uri": "textures/b_saide.001_baseColor.jpeg"
    }
  ],
  "materials": [
    {
      "doubleSided": true,
      "name": "a_side.001",
      "normalTexture": {
        "index": 1,
        "scale": 0.2
      },
      "pbrMetallicRoughness": {
        "baseColorTexture": {
          "index": 0
        },
        "metallicFactor": 0.6,
        "roughnessFactor": 0.09999999999999998
      }
    },
    {
      "doubleSided": true,
      "name": "b_saide.001",
      "normalTexture": {
        "index": 1,
        "scale": 0.2
      },
      "pbrMetallicRoughness": {
        "baseColorTexture": {
          "index": 2
        },
        "metallicFactor": 0.6,
        "roughnessFactor": 0.09999999999999998
      }
    },
    {
      "doubleSided": true,
      "name": "cam.001",
      "pbrMetallicRoughness": {
        "baseColorFactor": [
          0.573215,
          0.788013,
          0.8,
          1.0
        ],
        "metallicFactor": 0.5,
        "roughnessFactor": 0.0
      }
    },
    {
      "doubleSided": true,
      "name": "metal.001",
      "pbrMetallicRoughness": {
        "baseColorFactor": [
          0.4496016471190876,
          0.47290438966601367,
          0.5469729369111547,
          1.0
        ],
        "roughnessFactor": 0.22002778639135645
      }
    },
    {
      "doubleSided": true,
      "name": "pervane.001",
      "pbrMetallicRoughness": {
        "baseColorFactor": [
          0.046958,
          0.046958,
          0.046958,
          1.0
        ],
        "metallicFactor": 0.8954955037119458,
        "roughnessFactor": 0.0
      }
    },
    {
      "doubleSided": true,
      "name": "plastik.001",
      "pbrMetallicRoughness": {
        "baseColorFactor": [
          0.6592412686351545,
          0.6592412686351545,
          0.6592412686351545,
          1.0
        ],
        "metallicFactor": 0.6705290966686731,
        "roughnessFactor": 0.0
      }
    },
    {
      "doubleSided": true,
      "name": "teker.001",
      "pbrMetallicRoughness": {
        "baseColorFactor": [
          0.009018,
          0.009018,
          0.009018,
          1.0
        ],
        "metallicFactor": 0.28139801421544486,
        "roughnessFactor": 0.4145933276179705
      }
    }
  ],
  "meshes": [
    {
      "name": "Object_0",
      "primitives": [
        {
          "attributes": {
            "NORMAL": 1,
            "POSITION": 0,
            "TEXCOORD_0": 2
          },
          "indices": 3,
          "material": 2,
          "mode": 4
        }
      ]
    },
    {
      "name": "Object_1",
      "primitives": [
        {
          "attributes": {
            "NORMAL": 5,
            "POSITION": 4,
            "TEXCOORD_0": 6
          },
          "indices": 7,
          "material": 3,
          "mode": 4
        }
      ]
    },
    {
      "name": "Object_2",
      "primitives": [
        {
          "attributes": {
            "NORMAL": 9,
            "POSITION": 8,
            "TEXCOORD_0": 10
          },
          "indices": 11,
          "material": 3,
          "mode": 4
        }
      ]
    },
    {
      "name": "Object_3",
      "primitives": [
        {
          "attributes": {
            "NORMAL": 13,
            "POSITION": 12,
            "TEXCOORD_0": 14
          },
          "indices": 15,
          "material": 4,
          "mode": 4
        }
      ]
    },
    {
      "name": "Object_4",
      "primitives": [
        {
          "attributes": {
            "NORMAL": 17,
            "POSITION": 16,
            "TEXCOORD_0": 18
          },
          "indices": 19,
          "material": 6,
          "mode": 4
        }
      ]
    },
    {
      "name": "Object_5",
      "primitives": [
        {
          "attributes": {
            "NORMAL": 21,
            "POSITION": 20,
            "TANGENT": 22,
            "TEXCOORD_0": 23
          },
          "indices": 24,
          "material": 0,
          "mode": 4
        }
      ]
    },
    {
      "name": "Object_6",
      "primitives": [
        {
          "attributes": {
            "NORMAL": 26,
            "POSITION": 25,
            "TANGENT": 27,
            "TEXCOORD_0": 28
          },
          "indices": 29,
          "material": 0,
          "mode": 4
        }
      ]
    },
    {
      "name": "Object_7",
      "primitives": [
        {
          "attributes": {
            "NORMAL": 31,
            "POSITION": 30,
            "TANGENT": 32,
            "TEXCOORD_0": 33
          },
          "indices": 34,
          "material": 1,
          "mode": 4
        }
      ]
    },
    {
      "name": "Object_8",
      "primitives": [
        {
          "attributes": {
            "NORMAL": 36,
            "POSITION": 35,
            "TEXCOORD_0": 37
          },
          "indices": 38,
          "material": 5,
          "mode": 4
        }
      ]
    }
  ],
  "nodes": [
    {
      "children": [
        1
      ],
      "matrix": [
        1.0,
        0.0,
        0.0,
        0.0,
        0.0,
        2.220446049250313e-16,
        -1.0,
        0.0,
        0.0,
        1.0,
        2.220446049250313e-16,
        0.0,
        0.0,
        0.0,
        0.0,
        1.0
      ],
      "name": "Sketchfab_model"
    },
    {
      "children": [
        2,
        3,
        4,
        5,
        6,
        7,
        8,
        9,
        10
      ],
      "name": "turkish_airlines.obj.cleaner.materialmerger.gles"
    },
    {
      "mesh": 0,
      "name": "Object_2"
    },
    {
      "mesh": 1,
      "name": "Object_3"
    },
    {
      "mesh": 2,
      "name": "Object_4"
    },
    {
      "mesh": 3,
      "name": "Object_5"
    },
    {
      "mesh": 4,
      "name": "Object_6"
    },
    {
      "mesh": 5,
      "name": "Object_7"
    },
    {
      "mesh": 6,
      "name": "Object_8"
    },
    {
      "mesh": 7,
      "name": "Object_9"
    },
    {
      "mesh": 8,
      "name": "Object_10"
    }
  ],
  "samplers": [
    {
      "magFilter": 9729,
      "minFilter": 9987,
      "wrapS": 10497,
      "wrapT": 10497
    }
  ],
  "scene": 0,
  "scenes": [
    {
      "name": "Sketchfab_Scene",
      "nodes": [
        0
      ]
    }
  ],
  "textures": [
    {
      "sampler": 0,
      "source": 0
    },
    {
      "sampler": 0,
      "source": 1
    },
    {
      "sampler": 0,
      "source": 2
    }
  ]
}
